<?xml version="1.0" encoding="UTF-8" standalone="no"?><!DOCTYPE svg PUBLIC "-//W3C//DTD SVG 1.1//EN" "http://www.w3.org/Graphics/SVG/1.1/DTD/svg11.dtd"><svg width="100%" height="100%" viewBox="0 0 64 64" version="1.1" xmlns="http://www.w3.org/2000/svg" xmlns:xlink="http://www.w3.org/1999/xlink" xml:space="preserve" xmlns:serif="http://www.serif.com/" style="fill-rule:evenodd;clip-rule:evenodd;stroke-linejoin:round;stroke-miterlimit:2;"><rect id="chevron-right" x="0" y="0" width="64" height="64" style="fill:none;"/><g><path d="M50.286,33.768c0.975,-0.976 0.975,-2.56 0,-3.536l-29.501,-29.5c-0.975,-0.976 -2.56,-0.976 -3.535,0l-3.536,3.535c-0.975,0.976 -0.975,2.56 0,3.536l29.501,29.5c0.975,0.976 2.56,0.976 3.535,0l3.536,-3.535Z" style="fill:#fff;"/><path d="M46.75,26.697c-0.975,-0.976 -2.56,-0.976 -3.535,0l-29.501,29.5c-0.975,0.976 -0.975,2.56 0,3.536l3.536,3.535c0.975,0.976 2.56,0.976 3.535,0l29.501,-29.5c0.975,-0.976 0.975,-2.56 0,-3.536l-3.536,-3.535Z" style="fill:#fff;"/></g></svg>