<?xml version="1.0" encoding="UTF-8" standalone="no"?><!DOCTYPE svg PUBLIC "-//W3C//DTD SVG 1.1//EN" "http://www.w3.org/Graphics/SVG/1.1/DTD/svg11.dtd"><svg width="100%" height="100%" viewBox="0 0 64 64" version="1.1" xmlns="http://www.w3.org/2000/svg" xmlns:xlink="http://www.w3.org/1999/xlink" xml:space="preserve" xmlns:serif="http://www.serif.com/" style="fill-rule:evenodd;clip-rule:evenodd;stroke-linejoin:round;stroke-miterlimit:2;"><rect id="coin" x="0" y="0" width="64" height="64" style="fill:none;"/><clipPath id="_clip1"><rect x="0" y="0" width="64" height="64"/></clipPath><g clip-path="url(#_clip1)"><g><path d="M0.057,28.007c0,-13.222 14.313,-23.957 31.943,-23.957c17.63,0 31.943,10.735 31.943,23.957c0.129,0.963 0,4.601 0,5.59c0,14.545 -14.313,26.353 -31.943,26.353c-17.63,0 -31.943,-11.808 -31.943,-26.353c0,-0.989 -0.129,-4.627 0,-5.59Z" style="fill:#fff;"/><path d="M63.943,28.007c0.129,0.963 0,4.601 0,5.59c0,14.545 -14.313,26.353 -31.943,26.353c-17.63,0 -31.943,-11.808 -31.943,-26.353c0,-0.989 -0.129,-4.627 0,-5.59c1.767,11.971 15.512,23.957 31.943,23.957c16.431,0 30.176,-11.986 31.943,-23.957Z" style="fill-opacity:0.12;"/><clipPath id="_clip2"><path d="M63.943,28.007c0.129,0.963 0,4.601 0,5.59c0,14.545 -14.313,26.353 -31.943,26.353c-17.63,0 -31.943,-11.808 -31.943,-26.353c0,-0.989 -0.129,-4.627 0,-5.59c1.767,11.971 15.512,23.957 31.943,23.957c16.431,0 30.176,-11.986 31.943,-23.957Z"/></clipPath><g clip-path="url(#_clip2)"><g><rect x="2.453" y="16.827" width="1.597" height="60.691" style="fill-opacity:0.12;"/><rect x="8.842" y="16.827" width="1.597" height="60.691" style="fill-opacity:0.12;"/><rect x="15.23" y="16.827" width="1.597" height="60.691" style="fill-opacity:0.12;"/><rect x="21.619" y="16.827" width="1.597" height="60.691" style="fill-opacity:0.12;"/><rect x="28.007" y="16.827" width="1.597" height="60.691" style="fill-opacity:0.12;"/><rect x="34.396" y="16.827" width="1.597" height="60.691" style="fill-opacity:0.12;"/><rect x="40.784" y="16.827" width="1.597" height="60.691" style="fill-opacity:0.12;"/><rect x="47.173" y="16.827" width="1.597" height="60.691" style="fill-opacity:0.12;"/><rect x="53.561" y="16.827" width="1.597" height="60.691" style="fill-opacity:0.12;"/><rect x="59.95" y="16.827" width="1.597" height="60.691" style="fill-opacity:0.12;"/></g></g></g></g></svg>