<svg viewBox="0 0 64 64" xmlns="http://www.w3.org/2000/svg" fill-rule="evenodd" clip-rule="evenodd" stroke-linejoin="round" stroke-miterlimit="2"><path fill="none" d="M0 0h64v64H0z"/><g fill="#fff"><path d="M56.395 52.923a2.5 2.5 0 000-3.535L14.676 7.668a2.503 2.503 0 00-3.536 0l-3.535 3.536a2.5 2.5 0 000 3.535l41.719 41.72c.976.975 2.56.975 3.536 0l3.535-3.536z"/><path d="M52.86 7.541a2.503 2.503 0 00-3.536 0L7.605 49.261a2.5 2.5 0 000 3.535l3.535 3.536c.976.975 2.56.975 3.536 0l41.719-41.72a2.5 2.5 0 000-3.535L52.86 7.541z"/></g></svg>