<svg viewBox="0 0 64 64" xmlns="http://www.w3.org/2000/svg" fill-rule="evenodd" clip-rule="evenodd" stroke-linejoin="round" stroke-miterlimit="2"><g><path class="top-bar" d="M64 11.5A2.5 2.5 0 0061.5 9h-59A2.5 2.5 0 000 11.5v5A2.5 2.5 0 002.5 19h59a2.5 2.5 0 002.5-2.5v-5z"/><path class="middle-bar" d="M64 29.5a2.5 2.5 0 00-2.5-2.5h-59A2.5 2.5 0 000 29.5v5A2.5 2.5 0 002.5 37h59a2.5 2.5 0 002.5-2.5v-5z"/><path class="bottom-bar" d="M64 47.5a2.5 2.5 0 00-2.5-2.5h-59A2.5 2.5 0 000 47.5v5A2.5 2.5 0 002.5 55h59a2.5 2.5 0 002.5-2.5v-5z"/></g></svg>
